<?xml version="1.0" encoding="UTF-8" standalone="no"?>
<!-- Created with Inkscape (http://www.inkscape.org/) -->

<svg
   xmlns:dc="http://purl.org/dc/elements/1.1/"
   xmlns:cc="http://creativecommons.org/ns#"
   xmlns:rdf="http://www.w3.org/1999/02/22-rdf-syntax-ns#"
   xmlns:svg="http://www.w3.org/2000/svg"
   xmlns="http://www.w3.org/2000/svg"
   xmlns:sodipodi="http://sodipodi.sourceforge.net/DTD/sodipodi-0.dtd"
   xmlns:inkscape="http://www.inkscape.org/namespaces/inkscape"
   width="90.158623mm"
   height="101.23475mm"
   viewBox="0 0 319.45969 358.7058"
   id="svg4240"
   version="1.1"
   inkscape:version="0.91 r13725"
   sodipodi:docname="logo weeia.svg">
  <defs
     id="defs4242" />
  <sodipodi:namedview
     id="base"
     pagecolor="#ffffff"
     bordercolor="#666666"
     borderopacity="1.0"
     inkscape:pageopacity="0.0"
     inkscape:pageshadow="2"
     inkscape:zoom="0.9899495"
     inkscape:cx="210.7789"
     inkscape:cy="120.24628"
     inkscape:document-units="px"
     inkscape:current-layer="layer1"
     showgrid="false"
     fit-margin-top="0"
     fit-margin-left="0"
     fit-margin-right="0"
     fit-margin-bottom="0"
     inkscape:window-width="1366"
     inkscape:window-height="705"
     inkscape:window-x="-8"
     inkscape:window-y="-8"
     inkscape:window-maximized="1" />
  <metadata
     id="metadata4245">
    <rdf:RDF>
      <cc:Work
         rdf:about="">
        <dc:format>image/svg+xml</dc:format>
        <dc:type
           rdf:resource="http://purl.org/dc/dcmitype/StillImage" />
        <dc:title />
      </cc:Work>
    </rdf:RDF>
  </metadata>
  <g
     inkscape:label="Layer 1"
     inkscape:groupmode="layer"
     id="layer1"
     transform="translate(22.586984,-207.29502)">
    <path
       inkscape:connector-curvature="0"
       id="path4318"
       d="m 88.445377,565.76552 c -12.529848,-1.45253 -22.046469,-6.49503 -28.573726,-15.14015 -7.208467,-9.54737 -9.093777,-21.34123 -5.170888,-32.34732 4.075233,-11.43351 14.936673,-20.67745 27.638844,-23.52284 20.395153,-4.56869 41.256823,6.61768 46.940053,25.17002 0.88123,2.87668 1.70319,8.32936 1.38184,9.16678 -0.19463,0.5072 -0.89878,0.57271 -5.21464,0.48521 l -4.98963,-0.10116 -0.42726,-2.72573 c -0.90898,-5.79883 -2.89234,-9.63281 -7.23476,-13.98531 -5.956,-5.96985 -14.042453,-8.94564 -22.896113,-8.42573 -14.587575,0.85662 -25.896653,11.14514 -26.616837,24.21487 -0.757564,13.74813 10.347216,25.09901 26.162547,26.74234 l 2.08972,0.21713 0,5.2436 0,5.24358 -0.99943,-0.0544 c -0.54969,-0.0299 -1.49006,-0.11133 -2.08972,-0.18084 z"
       style="fill:#1c174f;fill-opacity:1" />
    <path
       inkscape:connector-curvature="0"
       id="path4316"
       d="m 170.39893,565.76025 c -14.57505,-1.42347 -26.20322,-10.92445 -29.48787,-24.09354 -0.64731,-2.59525 -0.73962,-3.81091 -0.59334,-7.81376 0.20012,-5.47599 1.07847,-8.66162 3.66185,-13.28095 1.83613,-3.28317 7.74309,-9.37888 10.8578,-11.20475 10.07624,-5.90678 22.11159,-6.74827 32.61153,-2.28014 12.51423,5.32528 20.50288,18.20047 19.07808,30.74784 l -0.33016,2.90744 -19.62524,0 -19.62524,0 0,-5.08803 0,-5.08802 13.97829,-0.0953 c 8.26668,-0.0563 14.12023,-0.23719 14.32567,-0.44263 0.22089,-0.22089 -0.13184,-1.31107 -0.9687,-2.99391 -3.59073,-7.22064 -10.87605,-11.71883 -19.70322,-12.1654 -7.1659,-0.36252 -13.13551,1.87521 -18.03057,6.75884 -4.21777,4.20792 -5.7798,7.90222 -5.76646,13.63805 0.006,2.50987 0.20997,3.86884 0.85604,5.69903 2.74908,7.78764 10.18303,13.2197 19.57926,14.30679 l 2.08972,0.24176 0,5.24359 c 0,5.90192 0.33817,5.32002 -2.90744,5.00304 z"
       style="fill:#1c174f;fill-opacity:1" />
    <path
       inkscape:connector-curvature="0"
       id="path4314"
       d="m 263.07368,565.75988 c -10.97335,-1.18162 -20.27652,-7.66493 -24.94701,-17.38545 -2.44603,-5.09083 -2.85911,-7.07821 -2.83273,-13.62864 0.0207,-5.13834 0.11127,-5.90453 1.03116,-8.72233 3.36082,-10.29487 11.13696,-17.79807 21.55462,-20.79807 4.07597,-1.17376 12.34707,-1.15149 16.82355,0.0453 10.21936,2.7322 17.18548,8.89196 20.48503,18.1138 l 1.13926,3.18409 0.11033,17.3639 0.11032,17.3639 -5.19835,-0.10096 -5.19835,-0.10095 -0.18592,-16.53608 c -0.19704,-17.52515 -0.16322,-17.17391 -1.99479,-20.71578 -0.90915,-1.7581 -3.39772,-4.323 -5.5139,-5.68302 -4.50437,-2.89486 -12.12943,-4.17922 -17.20037,-2.89722 -3.90841,0.98809 -6.76116,2.60598 -9.61537,5.4532 -4.47612,4.46516 -6.21733,8.96773 -5.91757,15.3022 0.13015,2.75027 0.40505,4.2423 1.13014,6.13377 2.78475,7.26432 8.98071,12.03652 17.03628,13.12155 2.12636,0.2864 2.15488,0.37397 2.01465,6.18481 -0.11698,4.84704 0.0384,4.61086 -2.83098,4.30189 z"
       style="fill:#1c174f;fill-opacity:1" />
    <path
       inkscape:connector-curvature="0"
       id="path4312"
       d="m -22.493937,535.24687 0.09304,-29.03037 4.491778,-0.10236 c 3.00131,-0.0684 4.65948,0.0368 4.997168,0.31707 0.421172,0.34954 0.50539,4.01188 0.50539,21.9776 0,11.85698 0.140033,21.6447 0.311187,21.75048 0.171154,0.10578 1.121303,-0.2251 2.1114361,-0.73528 10.97440604,-5.65474 15.846605,-16.29454 16.373997,-35.75719 0.131529,-4.85387 0.342762,-7.54337 0.606111,-7.71733 0.701471,-0.46335 8.7519599,-0.32564 9.2355839,0.15798 0.329478,0.32948 0.436116,5.75028 0.436116,22.16926 0,25.07955 -0.439038,22.90926 4.04196,19.98054 3.684908,-2.40841 7.141913,-6.24529 9.15403,-10.15993 3.237849,-6.29934 4.72211,-13.10169 5.353577,-24.53537 0.212084,-3.84012 0.453968,-7.18647 0.537521,-7.43633 0.233802,-0.69919 9.120326,-0.6397 9.514997,0.0637 0.159847,0.28489 0.181235,3.51487 0.04753,7.17775 -0.967979,26.5179 -9.658337,41.51153 -27.84567,48.0426 -3.562065,1.27914 -9.8736219,2.85791 -10.4859299,2.62294 -0.393137,-0.15086 -0.494069,-1.63969 -0.494069,-7.28789 0,-3.90406 -0.127382,-7.0983 -0.283072,-7.0983 -0.15569,0 -1.341382,1.07704 -2.63487,2.39342 -3.16097596,3.21692 -6.068899,5.25247 -10.579197,7.40545 -3.5190281,1.6798 -10.9189321,4.08635 -14.1575801,4.60422 l -1.424081,0.22772 z"
       style="fill:#1c174f;fill-opacity:1" />
    <path
       inkscape:connector-curvature="0"
       id="path4310"
       d="m 216.36253,560.83283 c -0.0977,-0.25586 -0.13533,-12.6492 -0.0836,-27.54076 l 0.094,-27.07557 4.7246,0 4.72459,0 0,27.439 0,27.43899 -4.64095,0.10177 c -3.51144,0.077 -4.68419,-0.0114 -4.81858,-0.36343 z"
       style="fill:#1c174f;fill-opacity:1" />
    <path
       inkscape:connector-curvature="0"
       id="path4308"
       d="m 106.18957,541.14958 c -2.446,-0.79991 -3.90561,-1.88202 -8.965303,-6.64661 -5.49879,-5.17809 -7.8607,-6.62677 -9.73751,-5.97252 -1.68681,0.58803 -3.32278,1.94572 -4.84774,4.02314 -0.73834,1.00582 -1.53806,1.82877 -1.77715,1.82877 -0.64977,0 -4.591412,-2.54374 -4.591412,-2.96306 0,-0.19967 0.73522,-1.3185 1.633822,-2.48631 5.19582,-6.75234 10.88105,-8.22573 16.85108,-4.36711 1.17226,0.75767 4.11489,3.28493 6.539183,5.61614 6.9337,6.66747 8.31208,6.92378 12.56006,2.33556 2.63299,-2.84387 2.3426,-2.81249 5.58049,-0.60298 l 1.55186,1.05897 -0.64328,1.09887 c -1.11189,1.89937 -4.73145,5.33944 -6.63062,6.30182 -2.24023,1.13522 -5.42072,1.46297 -7.52348,0.77532 z"
       style="fill:#eb5f30;fill-opacity:1" />
    <path
       inkscape:connector-curvature="0"
       id="path4306"
       d="M 133.32903,447.63661 C 108.1001,446.46976 81.272507,437.32392 61.492743,423.1468 52.427172,416.64907 41.299526,406.14004 35.292258,398.4029 21.120773,380.15051 12.916703,359.84657 10.86476,337.94823 c -0.480433,-5.12721 -0.481807,-15.74553 -0.0025,-20.58617 3.895956,-39.35943 27.261223,-73.36826 64.264484,-93.53884 12.787077,-6.97027 29.758206,-12.56193 44.573806,-14.68623 16.05101,-2.30143 33.27846,-1.86828 48.37984,1.21641 37.56425,7.67307 68.60488,29.40927 87.16626,61.03817 8.71101,14.84371 14.23435,33.6338 14.98319,50.972 l 0.22576,5.22689 -17.45581,0 -17.45581,0 -0.22714,-1.13572 c -0.12493,-0.62464 -0.2338,-3.36173 -0.2338,-3.36173 -0.0241,-8.07209 -3.22753,-20.16889 -7.80755,-29.48328 -12.96339,-26.36367 -39.46754,-44.75339 -71.77705,-49.80202 -5.85542,-0.91496 -20.3366,-1.12917 -26.65922,-0.39435 -12.77454,1.48466 -23.31616,4.57199 -34.390019,10.07182 -35.61385,17.68761 -54.600082,53.44077 -47.413355,89.28453 4.29393,21.41596 17.684708,40.51038 37.593665,53.60623 5.06124,3.32922 15.752479,8.54524 21.624109,10.54993 9.00244,3.07361 19.26833,5.03557 29.07443,5.55654 2.79126,0.14829 4.83386,0.41639 4.99161,0.65517 0.14685,0.2223 0.26951,7.93536 0.27257,17.14014 0.004,12.53864 -0.10381,16.84535 -0.43055,17.17209 -0.42013,0.42012 -1.2797,0.44363 -6.83249,0.1868 z"
       style="fill:#1c174f;fill-opacity:1"
       inkscape:export-xdpi="90"
       inkscape:export-ydpi="90" />
    <path
       inkscape:connector-curvature="0"
       id="path4242"
       d="m 192.53499,367.39141 c -7.66016,-1.45621 -15.09477,-5.47408 -23.40807,-12.65038 -2.19875,-1.89804 -8.08632,-7.49287 -13.08349,-12.43296 -12.95291,-12.80497 -18.09204,-16.7352 -23.79227,-18.19553 -2.94205,-0.75372 -5.24375,-0.433 -8.2908,1.15522 -5.32271,2.77439 -11.69285,9.35953 -17.11358,17.69118 -0.873,1.3418 -1.65552,2.43963 -1.73894,2.43963 -0.2505,0 -16.984473,-10.60757 -17.536753,-11.11645 -0.43359,-0.39951 -0.26917,-0.84168 1.08698,-2.92317 6.17203,-9.47319 14.038073,-17.97045 20.891763,-22.56824 3.42324,-2.29647 8.45373,-4.61518 12.14943,-5.60005 2.46625,-0.65722 4.04184,-0.82196 7.81375,-0.81695 5.40619,0.007 8.97504,0.72527 13.86643,2.79012 7.54346,3.18439 13.14913,7.55294 26.64154,20.76197 11.60913,11.36533 15.47237,14.77973 19.66203,17.37774 5.69053,3.5287 9.2257,3.93186 13.95313,1.59129 4.64175,-2.29815 9.47506,-7.0508 15.05332,-14.80208 1.32801,-1.84535 2.55644,-3.35878 2.72983,-3.36318 0.55891,-0.0142 17.66656,11.20578 17.65984,11.58211 -0.004,0.19988 -1.02535,1.78166 -2.27061,3.51506 -10.26042,14.28238 -19.25475,21.76007 -29.88484,24.8456 -4.11855,1.19546 -10.2665,1.50271 -14.38869,0.71907 z"
       style="fill:#e35d2f;fill-opacity:1"
       inkscape:export-xdpi="90"
       inkscape:export-ydpi="90" />
  </g>
</svg>
